<svg width="35" height="35" viewBox="0 0 35 35" fill="none" xmlns="http://www.w3.org/2000/svg">
<g id="chat">
<path id="Combined Shape" d="M12.8679 27.1076L12.9973 26.6246C12.8792 26.593 12.7537 26.6057 12.6443 26.6604L12.8679 27.1076ZM5.8331 30.625L5.33813 30.5543C5.31183 30.7384 5.38988 30.9219 5.54075 31.0306C5.69162 31.1394 5.89037 31.1554 6.05671 31.0722L5.8331 30.625ZM6.78574 23.9566L7.28071 24.0273C7.30476 23.8589 7.2416 23.6899 7.11304 23.5786L6.78574 23.9566ZM17.4998 28.2083C25.7202 28.2083 32.5832 22.8595 32.5832 16.0417H31.5832C31.5832 22.1105 25.3877 27.2083 17.4998 27.2083V28.2083ZM12.7386 27.5906C14.2363 27.9916 15.8373 28.2083 17.4998 28.2083V27.2083C15.9241 27.2083 14.4101 27.0029 12.9973 26.6246L12.7386 27.5906ZM6.05671 31.0722L13.0916 27.5548L12.6443 26.6604L5.6095 30.1778L6.05671 31.0722ZM6.29076 23.8859L5.33813 30.5543L6.32808 30.6957L7.28071 24.0273L6.29076 23.8859ZM2.4165 16.0417C2.4165 19.2656 3.9667 22.1769 6.45843 24.3345L7.11304 23.5786C4.80128 21.5768 3.4165 18.9271 3.4165 16.0417H2.4165ZM17.4998 3.875C9.27942 3.875 2.4165 9.22385 2.4165 16.0417H3.4165C3.4165 9.97284 9.61194 4.875 17.4998 4.875V3.875ZM32.5832 16.0417C32.5832 9.22385 25.7202 3.875 17.4998 3.875V4.875C25.3877 4.875 31.5832 9.97284 31.5832 16.0417H32.5832Z" fill="#8C8C8C"/>
</g>
</svg>
