<svg width="24" height="24" viewBox="0 0 24 24" fill="none" xmlns="http://www.w3.org/2000/svg">
<mask id="path-1-inside-1" fill="white">
<path fill-rule="evenodd" clip-rule="evenodd" d="M2 12H2.00016C2.79362 14.8377 6.9069 17 11.8619 17C16.8169 17 20.9302 14.8377 21.7236 12C20.9302 9.16235 16.8169 7 11.8618 7C6.90674 7 2.79346 9.16235 2 12Z"/>
</mask>
<path d="M2.00016 12L2.96322 11.7307L2.7589 11H2.00016V12ZM2 12L1.03694 11.7307L0.682025 13H2V12ZM21.7236 12L22.6867 12.2693L22.762 12L22.6867 11.7307L21.7236 12ZM2.00016 11H2V13H2.00016V11ZM11.8619 16C9.522 16 7.4147 15.4881 5.82655 14.6742C4.21878 13.8502 3.25725 12.7823 2.96322 11.7307L1.0371 12.2693C1.53653 14.0554 3.02838 15.4875 4.91436 16.4541C6.81997 17.4307 9.2468 18 11.8619 18V16ZM20.7606 11.7307C20.4665 12.7823 19.505 13.8502 17.8972 14.6742C16.3091 15.4881 14.2018 16 11.8619 16V18C14.477 18 16.9038 17.4307 18.8094 16.4541C20.6954 15.4875 22.1873 14.0554 22.6867 12.2693L20.7606 11.7307ZM11.8618 8C14.2018 8 16.3091 8.51187 17.8972 9.32581C19.505 10.1498 20.4665 11.2178 20.7606 12.2693L22.6867 11.7307C22.1873 9.9446 20.6954 8.51254 18.8094 7.54595C16.9038 6.56931 14.477 6 11.8618 6V8ZM2.96306 12.2693C3.25709 11.2178 4.21861 10.1498 5.8264 9.32581C7.41455 8.51187 9.52188 8 11.8618 8V6C9.24667 6 6.81982 6.56931 4.9142 7.54595C3.02821 8.51254 1.53637 9.9446 1.03694 11.7307L2.96306 12.2693Z" fill="#9B9B9B" mask="url(#path-1-inside-1)"/>
<rect x="10" y="10" width="4" height="4" rx="2" fill="#9B9B9B"/>
</svg>
