<svg width="24" height="24" viewBox="0 0 24 24" fill="none" xmlns="http://www.w3.org/2000/svg">
<g clip-path="url(#clip0)">
<path d="M24.0001 12.2755C24.0001 11.4598 23.9326 10.6396 23.7886 9.83713H12.2407V14.4581H18.8537C18.5793 15.9485 17.6975 17.2669 16.4064 18.1046V21.103H20.3517C22.6685 19.013 24.0001 15.9264 24.0001 12.2755Z" fill="#4285F4"/>
<path d="M12.2409 23.9999C15.5428 23.9999 18.3275 22.9373 20.3563 21.103L16.4111 18.1047C15.3134 18.8366 13.8964 19.2511 12.2454 19.2511C9.05137 19.2511 6.34322 17.139 5.37152 14.2994H1.30029V17.3904C3.37864 21.4425 7.61182 23.9999 12.2409 23.9999V23.9999Z" fill="#34A853"/>
<path d="M5.36663 14.2995C4.85379 12.8091 4.85379 11.1953 5.36663 9.70494V6.614H1.2999C-0.436556 10.0048 -0.436556 13.9996 1.2999 17.3904L5.36663 14.2995V14.2995Z" fill="#FBBC04"/>
<path d="M12.2409 4.74882C13.9863 4.72236 15.6733 5.36613 16.9374 6.54783L20.4328 3.12178C18.2195 1.08467 15.2819 -0.0353052 12.2409 -3.05674e-05C7.61181 -3.05674e-05 3.37864 2.55738 1.30029 6.61397L5.36702 9.70491C6.33421 6.86089 9.04686 4.74882 12.2409 4.74882V4.74882Z" fill="#EA4335"/>
</g>
<defs>
<clipPath id="clip0">
<rect width="24" height="24" fill="white"/>
</clipPath>
</defs>
</svg>
