<svg width="36" height="35" viewBox="0 0 36 35" fill="none" xmlns="http://www.w3.org/2000/svg">
<g id="phone">
<path id="Path 16" d="M19.1112 26.8385L23.246 22.8186C23.5935 22.4808 24.14 22.4338 24.5431 22.7071L30.679 26.8677C31.1967 27.2187 31.2623 27.9394 30.8159 28.3733L29.2736 29.8729C28.5534 30.5731 27.5229 30.8758 26.546 30.5957C23.6878 29.776 17.4714 27.5461 12.3926 22.6084C7.31389 17.6708 5.02032 11.6271 4.17719 8.84821C3.88902 7.89846 4.20044 6.89661 4.92064 6.19642L6.46301 4.69689C6.90934 4.26296 7.65061 4.32668 8.01169 4.83002L12.2912 10.7955C12.5723 11.1874 12.5239 11.7187 12.1765 12.0565L8.0417 16.0765" stroke="#8C8C8C" stroke-linecap="round"/>
</g>
</svg>
