<svg width="24" height="24" viewBox="0 0 24 24" fill="none" xmlns="http://www.w3.org/2000/svg">
<g clip-path="url(#clip0)">
<path fill-rule="evenodd" clip-rule="evenodd" d="M14.414 7.34337C16.3667 9.29599 16.3667 12.4618 14.414 14.4144C12.4614 16.3671 9.29559 16.3671 7.34296 14.4144C5.39034 12.4618 5.39034 9.29599 7.34296 7.34337C9.29559 5.39075 12.4614 5.39075 14.414 7.34337ZM16.4852 15.0714C18.5408 12.3296 18.3218 8.42275 15.8282 5.92916C13.0946 3.19549 8.66242 3.19549 5.92875 5.92916C3.19508 8.66283 3.19508 13.095 5.92875 15.8287C8.42234 18.3222 12.3292 18.5412 15.071 16.4856L19.3638 20.7784L20.778 19.3642L16.4852 15.0714Z" fill="#42443F"/>
</g>
<defs>
<clipPath id="clip0">
<rect width="24" height="24" fill="white"/>
</clipPath>
</defs>
</svg>
